<svg width="185" height="55" viewBox="0 0 185 55" fill="none" xmlns="http://www.w3.org/2000/svg">
<g clip-path="url(#clip0)">
<path d="M56.5596 3.57016e-06H14.893C14.1917 -0.00067636 13.4938 0.0957653 12.819 0.28658C11.282 0.717463 9.88093 1.53495 8.74952 2.66108C7.61811 3.78721 6.79407 5.18442 6.356 6.71946L3.5732 18.0317C3.51258 18.2275 3.49682 18.4344 3.5271 18.6371C3.55738 18.8398 3.63292 19.0331 3.7481 19.2026C3.86329 19.3721 4.01517 19.5135 4.19247 19.6163C4.36977 19.7191 4.56795 19.7806 4.77229 19.7964H23.1056C24.3339 19.7475 25.4957 19.2251 26.3474 18.3387C27.1992 17.4524 27.6749 16.2708 27.6749 15.0415C27.6749 13.8122 27.1992 12.6306 26.3474 11.7442C25.4957 10.8579 24.3339 10.3355 23.1056 10.2866H12.8492H11.5596L10.7301 13.7858H23.083C23.409 13.8107 23.7135 13.9578 23.9357 14.1976C24.1579 14.4374 24.2813 14.7523 24.2813 15.0792C24.2813 15.4061 24.1579 15.721 23.9357 15.9608C23.7135 16.2006 23.409 16.3476 23.083 16.3726L12.819 16.3801H6.27305C5.94122 16.3801 5.74514 15.9427 5.82056 15.5505L7.73609 7.76018C7.99769 6.4272 8.60494 5.18636 9.49701 4.16192C10.3891 3.13749 11.5347 2.36543 12.819 1.92308C13.4739 1.73662 14.1517 1.64269 14.8326 1.64405H56.7783C61.1071 1.64405 63.6788 5.01509 62.7059 9.18552L57.0649 32.7904C56.7025 34.4815 55.847 36.0272 54.6064 37.2323C53.303 38.4678 51.568 39.1444 49.7723 39.1176H7.54001C6.53392 39.1622 5.53431 38.9359 4.64553 38.4623C3.75675 37.9887 3.01138 37.2853 2.48722 36.4253C1.6849 35.0218 1.4604 33.3611 1.86128 31.7949L2.48722 29.2308L3.54303 24.9548C3.58464 24.7947 3.67275 24.6505 3.79623 24.5404C3.91972 24.4304 4.07304 24.3593 4.23685 24.3364H20.4359C20.7736 24.3617 21.0892 24.5138 21.3195 24.762C21.5498 25.0102 21.6778 25.3363 21.6778 25.675C21.6778 26.0136 21.5498 26.3397 21.3195 26.5879C21.0892 26.8362 20.7736 26.9882 20.4359 27.0136H7.61543L6.78587 30.3997H20.6019C21.8619 30.3997 23.0704 29.8991 23.9614 29.0081C24.8524 28.1171 25.353 26.9086 25.353 25.6486C25.353 24.3885 24.8524 23.18 23.9614 22.289C23.0704 21.398 21.8619 20.8974 20.6019 20.8974H4.44047C4.00382 20.9328 3.58682 21.0941 3.24009 21.3618C2.89336 21.6296 2.63182 21.9922 2.48722 22.4057C2.48722 22.4057 2.48722 22.4736 2.48722 22.5113L0.22478 31.825C-0.0405326 33.0991 0.0283895 34.4202 0.424844 35.6598C0.821298 36.8994 1.53179 38.0153 2.48722 38.8989C3.79494 40.0915 5.50631 40.7438 7.27606 40.724H49.7723C51.4852 40.7401 53.1655 40.2552 54.6064 39.3288C56.4669 38.0838 57.7934 36.1869 58.3243 34.0121L64.3575 9.2911C65.534 4.24586 61.9669 3.57016e-06 56.5596 3.57016e-06Z" fill="#001D85"/>
<path d="M44.6819 27.0136H44.2973L31.4768 26.9684V27.0815L30.7227 30.4827H44.7875C45.5442 30.4777 46.2897 30.2997 46.967 29.9623C47.7611 29.5529 48.4277 28.9335 48.8944 28.1716C49.3611 27.4098 49.61 26.5345 49.6141 25.6411C49.6133 24.7519 49.3653 23.8804 48.8979 23.124C48.4304 22.3676 47.7619 21.756 46.967 21.3575C46.2829 21.0011 45.5211 20.8197 44.7498 20.8296C44.5982 20.8289 44.4469 20.8163 44.2973 20.7919C42.8463 20.7005 41.4847 20.0596 40.4895 18.9998C39.4943 17.9399 38.9403 16.5407 38.9403 15.0868C38.9403 13.6329 39.4943 12.2337 40.4895 11.1738C41.4847 10.1139 42.8463 9.47308 44.2973 9.38166C44.4328 9.37018 44.5691 9.37018 44.7046 9.38166H54.6065H58.1661L58.9881 5.86733H44.7046C44.5689 5.85965 44.433 5.85965 44.2973 5.86733C41.9331 5.98453 39.7045 7.00622 38.0727 8.72094C36.4408 10.4357 35.5308 12.7122 35.5308 15.0792C35.5308 17.4463 36.4408 19.7228 38.0727 21.4375C39.7045 23.1523 41.9331 24.174 44.2973 24.2912C44.4278 24.3025 44.559 24.3025 44.6895 24.2912C45.0455 24.2912 45.3869 24.4326 45.6387 24.6843C45.8904 24.9361 46.0319 25.2775 46.0319 25.6335C46.0319 25.9896 45.8904 26.331 45.6387 26.5827C45.3869 26.8345 45.0455 26.9759 44.6895 26.9759L44.6819 27.0136Z" fill="#001D85"/>
<path d="M23.0394 5.80688H12.6698L11.8176 9.28351H12.8207H23.0695C24.5433 9.28737 25.9595 9.8566 27.0259 10.8738C28.0924 11.891 28.7279 13.2787 28.8014 14.7507C28.8749 16.2226 28.3808 17.6667 27.421 18.7851C26.4611 19.9035 25.1088 20.611 23.6427 20.7616C24.6997 21.4425 25.5079 22.4473 25.9463 23.6257C26.3848 24.8041 26.43 26.0928 26.0752 27.299C25.7204 28.5053 24.9846 29.5642 23.9779 30.3175C22.9712 31.0708 21.7477 31.478 20.4903 31.4781L12.8207 31.4479H6.49335L5.65625 34.9019H20.5356C23.0005 34.8959 25.3625 33.913 27.1041 32.1687C28.8457 30.4243 29.8247 28.0607 29.8267 25.5957C29.825 24.3551 29.5683 23.1281 29.0725 21.9909C30.0803 21.0988 30.8808 19.9972 31.4179 18.7631C31.9513 17.5882 32.2272 16.3129 32.2272 15.0226C32.2272 13.7323 31.9513 12.4569 31.4179 11.282C30.7004 9.65693 29.527 8.27479 28.0399 7.30303C26.5528 6.33127 24.8158 5.81157 23.0394 5.80688Z" fill="#001D85"/>
<path d="M44.2988 13.8764C44.4686 13.7888 44.6585 13.7472 44.8493 13.7558H46.9685H54.608H57.0816L57.9263 10.3696H44.2988C43.1167 10.4753 42.0168 11.0195 41.2158 11.8953C40.4148 12.7711 39.9705 13.915 39.9705 15.1019C39.9705 16.2888 40.4148 17.4327 41.2158 18.3085C42.0168 19.1843 43.1167 19.7286 44.2988 19.8342C44.4421 19.8342 44.5929 19.8342 44.7513 19.8342C45.512 19.832 46.2656 19.9807 46.9685 20.2716C48.0417 20.7049 48.9609 21.449 49.6083 22.4084C50.2556 23.3679 50.6014 24.4988 50.6014 25.6562C50.6014 26.8136 50.2556 27.9445 49.6083 28.904C48.9609 29.8634 48.0417 30.6075 46.9685 31.0408C46.2737 31.3323 45.5274 31.481 44.7739 31.4782H44.2988L31.4331 31.4254H30.4904L29.5703 34.8643H44.8795C45.5828 34.8649 46.2838 34.7839 46.9685 34.623C48.994 34.1467 50.7992 33 52.0912 31.3689C53.3832 29.7379 54.0863 27.7181 54.0863 25.6373C54.0863 23.5566 53.3832 21.5368 52.0912 19.9058C50.7992 18.2747 48.994 17.128 46.9685 16.6517C46.2836 16.4933 45.5825 16.4148 44.8795 16.4179C44.6897 16.4153 44.5024 16.3743 44.329 16.2972C44.0941 16.1919 43.8947 16.0209 43.7548 15.8048C43.6149 15.5887 43.5404 15.3367 43.5404 15.0793C43.5404 14.8218 43.6149 14.5699 43.7548 14.3538C43.8947 14.1377 44.0941 13.9667 44.329 13.8613L44.2988 13.8764Z" fill="#001D85"/>
<path d="M70.5039 35.0754L77.148 5.95776H84.5009C86.5522 5.95776 92.9775 5.95776 92.7965 12.6697C92.6759 16.6063 89.7799 18.4691 88.332 19.2383C89.3727 19.8416 92.2535 20.7919 91.7105 25.46C91.1676 30.1282 88.0152 31.9382 87.0725 32.7677C86.3337 33.4023 85.4669 33.8704 84.5311 34.1403C83.1527 34.5663 81.7203 34.7923 80.2777 34.8115L70.5039 35.0754ZM77.148 29.7285H79.795C81.4593 29.7816 83.1059 29.3745 84.5537 28.552C85.4056 27.7229 85.9121 26.6021 85.9715 25.4148C86.0057 24.9515 85.9067 24.4881 85.6863 24.0792C85.4658 23.6704 85.133 23.3331 84.7271 23.1071C83.89 22.6471 82.5099 22.4208 80.5265 22.4208H79.6216H79.0107L77.148 29.7285ZM80.24 16.9683C80.6397 16.9683 80.9187 17.0287 81.1148 17.0362C81.3108 17.0437 81.4692 17.0362 81.6276 17.0362C82.9843 17.1138 84.3354 16.808 85.5265 16.1538C85.9565 15.9087 86.3115 15.5509 86.5533 15.1191C86.7952 14.6872 86.9147 14.1976 86.8991 13.7029C86.9211 13.3168 86.8319 12.9326 86.642 12.5958C86.4522 12.2589 86.1698 11.9836 85.8282 11.8024C84.7546 11.3486 83.5904 11.1498 82.427 11.2217H81.5069L80.24 16.9683Z" fill="#001D85"/>
<path d="M91.3398 35.0754L98.1875 5.95776H113.587L112.531 11.1388H102.456L101.106 17.9713H110.714L109.613 23.1448H99.6732L98.0367 29.8793H108.384L107.086 35.0754H91.3398Z" fill="#001D85"/>
<path d="M131.35 13.2127H125.634C125.634 13.2127 125.928 10.3545 123.251 10.2866C122.353 10.2011 121.458 10.4681 120.754 11.0312C120.05 11.5942 119.593 12.4091 119.48 13.3032C119.344 16.7195 123.854 17.0212 125.513 17.9412C127.859 19.2082 129.284 21.267 129.284 23.3937C129.088 30.8145 123.884 35.0227 117.625 35.2489C116.421 35.2802 115.224 35.0465 114.121 34.5643C113.017 34.0822 112.032 33.3633 111.237 32.4586C109.118 30.3545 109.917 26.2067 109.917 26.2067L115.656 26.252C115.656 26.252 115.129 28.5144 116.69 29.3289C117.851 29.9247 122.481 30.7542 123.56 25.6411C123.646 24.9329 123.5 24.2159 123.145 23.5974C122.504 21.991 117.157 20.7316 115.8 19.7059C115.169 19.2175 114.661 18.5877 114.318 17.8672C113.975 17.1468 113.806 16.3559 113.824 15.5581C113.948 12.7857 115.058 10.1487 116.954 8.12224C117.975 7.0716 119.208 6.24893 120.57 5.70824C121.932 5.16756 123.393 4.92108 124.857 4.98498C131.154 5.09811 131.388 9.89449 131.388 12.2097C131.388 12.4661 131.388 12.6622 131.388 12.7753C131.397 12.9222 131.384 13.0696 131.35 13.2127Z" fill="#001D85"/>
<path d="M158.158 14.5022H153.203C153.203 14.5022 153.347 11.2367 148 10.8822C141.846 10.4826 137.155 17.2548 136.763 21.9908C136.424 26.0406 136.235 30.1583 141.974 30.6786C146.574 31.101 149.199 27.0663 149.199 27.0663L155.617 26.7948C155.617 26.7948 151.846 34.0195 145.587 35.2412C140.308 36.2442 134.757 35.6258 132.208 29.3513C129.32 22.1869 135.089 13.2352 135.089 13.2352C135.089 13.2352 139.734 5.44484 147.864 5.39205C154.425 5.35435 159.124 10.4826 158.158 14.5022Z" fill="#001D85"/>
<path d="M183.3 23.8612C178.232 35.9049 168.172 36.9532 163.519 34.6907C158.866 32.4283 154.1 25.3468 160.02 14.1025C165.796 3.15982 176.324 5.5203 178.353 6.47053C180.382 7.42076 188.391 11.8174 183.3 23.8612ZM176.618 11.4253C174.356 10.2639 169.929 10.2111 165.653 15.4373C161.377 20.6636 161.407 28.4238 164.967 29.8717C169.628 31.7646 173.413 29.3514 176.483 25.0678C179.552 20.7843 181.513 13.914 176.618 11.4253Z" fill="#001D85"/>
<path d="M19.5327 52.7903C19.0242 52.9792 18.4835 53.0663 17.9415 53.0467C17.5956 53.0791 17.2469 53.0374 16.9185 52.9243C16.59 52.8113 16.2895 52.6295 16.0369 52.3912C15.7842 52.1528 15.5853 51.8633 15.4534 51.542C15.3215 51.2207 15.2595 50.875 15.2718 50.5279C15.2508 49.939 15.3778 49.3543 15.6413 48.8273C15.9049 48.3003 16.2964 47.8478 16.7801 47.5113C17.434 47.0711 18.2094 46.8469 18.9973 46.8702C19.4511 46.8521 19.903 46.9399 20.317 47.1267L19.9626 48.1749C19.6126 48.0254 19.2344 47.9534 18.854 47.9638C18.3557 47.9534 17.8697 48.1189 17.4814 48.4313C17.205 48.6706 16.9862 48.9691 16.8412 49.3047C16.6963 49.6403 16.629 50.0043 16.6443 50.3695C16.6298 50.5842 16.6615 50.7995 16.7371 51.0009C16.8127 51.2024 16.9305 51.3853 17.0827 51.5375C17.2348 51.6896 17.4178 51.8075 17.6192 51.8831C17.8207 51.9587 18.036 51.9903 18.2507 51.9758C18.6414 51.9793 19.0296 51.9129 19.397 51.7798L19.5327 52.7903Z" fill="#001D85"/>
<path d="M25.6394 50.3092C25.6621 50.6662 25.6113 51.0241 25.4899 51.3606C25.3685 51.6971 25.1792 52.005 24.9338 52.2653C24.6884 52.5256 24.3921 52.7326 24.0633 52.8735C23.7345 53.0144 23.3802 53.0863 23.0225 53.0845C22.7784 53.1028 22.5331 53.0692 22.3028 52.986C22.0726 52.9027 21.8626 52.7716 21.6866 52.6013C21.5107 52.4311 21.3728 52.2255 21.2819 51.9981C21.1911 51.7707 21.1495 51.5267 21.1598 51.2821C21.1414 50.9268 21.1954 50.5715 21.3185 50.2378C21.4417 49.9041 21.6314 49.5988 21.8762 49.3407C22.1209 49.0825 22.4156 48.8768 22.7423 48.7361C23.069 48.5953 23.4209 48.5225 23.7767 48.5219C24.0195 48.5038 24.2634 48.537 24.4926 48.6194C24.7218 48.7017 24.931 48.8315 25.1067 49.0001C25.2824 49.1687 25.4207 49.3724 25.5125 49.5979C25.6042 49.8235 25.6475 50.0659 25.6394 50.3092ZM22.4946 51.2821C22.4946 51.7949 22.7435 52.1343 23.196 52.1343C23.8973 52.1343 24.297 51.1011 24.297 50.3469C24.297 49.9472 24.1236 49.5174 23.6032 49.5174C22.8641 49.4872 22.4871 50.5732 22.4946 51.2821Z" fill="#001D85"/>
<path d="M26.9062 52.9864L27.4643 50.0302C27.5699 49.4796 27.6453 48.997 27.6981 48.6124H28.8444L28.7539 49.3665C28.9195 49.1171 29.1434 48.9119 29.4063 48.7687C29.6691 48.6255 29.9629 48.5485 30.2622 48.5445C30.4179 48.5332 30.5742 48.5567 30.7198 48.6131C30.8653 48.6695 30.9966 48.7575 31.1041 48.8708C31.2115 48.984 31.2926 49.1197 31.3413 49.268C31.39 49.4163 31.4053 49.5736 31.3859 49.7285C31.3791 49.9814 31.3539 50.2334 31.3105 50.4826L30.8278 53.0241H29.5835L30.0435 50.5279C30.0701 50.3658 30.0852 50.202 30.0888 50.0377C30.0888 49.736 29.9832 49.5173 29.6589 49.5173C29.3346 49.5173 28.7464 50.0452 28.5654 51.0256L28.1958 52.9638L26.9062 52.9864Z" fill="#001D85"/>
<path d="M33.0081 51.8327C33.3643 52.0139 33.7552 52.1168 34.1545 52.1343C34.524 52.1343 34.705 51.9609 34.705 51.7422C34.705 51.5235 34.5617 51.3726 34.162 51.1766C33.9113 51.0929 33.6899 50.9389 33.5241 50.733C33.3583 50.5271 33.2551 50.278 33.2269 50.0152C33.2269 49.1102 34.0262 48.5069 35.1575 48.5069C35.544 48.4904 35.929 48.5653 36.2811 48.7256L35.9795 49.6381C35.7062 49.5083 35.4073 49.4413 35.1047 49.442C34.7653 49.442 34.5315 49.5929 34.5315 49.8266C34.5315 50.0604 34.705 50.1585 35.067 50.3319C35.5421 50.5732 36.0398 50.9202 36.0398 51.531C36.0398 52.534 35.1952 53.0393 34.0338 53.0393C33.5631 53.0567 33.0973 52.9389 32.6914 52.6999L33.0081 51.8327Z" fill="#001D85"/>
<path d="M39.9695 47.3831L39.7357 48.6123H40.6482L40.4597 49.5852H39.5245L39.2304 51.0935C39.1905 51.277 39.1677 51.4638 39.1625 51.6515C39.1548 51.7008 39.1588 51.7513 39.1743 51.7987C39.1897 51.8462 39.2162 51.8893 39.2515 51.9246C39.2868 51.9599 39.3299 51.9863 39.3773 52.0018C39.4248 52.0172 39.4752 52.0213 39.5245 52.0135C39.6451 52.0211 39.766 52.0211 39.8865 52.0135L39.7357 53.0241C39.4903 53.0926 39.2363 53.1256 38.9815 53.1221C38.2274 53.1221 37.8428 52.73 37.8428 52.187C37.8437 51.9105 37.874 51.635 37.9333 51.365L38.2726 49.6229H37.707L37.888 48.65H38.4612L38.6422 47.7224L39.9695 47.3831Z" fill="#001D85"/>
<path d="M41.4766 52.9865L41.9668 50.3847C42.095 49.721 42.1478 48.982 42.193 48.6124H43.3091C43.3091 48.9066 43.2564 49.2007 43.2337 49.5023C43.3539 49.2245 43.5485 48.9852 43.796 48.8109C44.0435 48.6366 44.3343 48.534 44.6364 48.5144H44.8778L44.644 49.7738H44.4404C43.6183 49.7738 43.2337 50.528 43.0678 51.3651L42.7662 52.994L41.4766 52.9865Z" fill="#001D85"/>
<path d="M50.4353 48.6123L49.8772 51.561C49.7641 52.1191 49.7037 52.5942 49.6434 52.9864H48.5046L48.5876 52.2322C48.418 52.4771 48.193 52.6784 47.9309 52.82C47.6688 52.9615 47.3771 53.0392 47.0793 53.0467C46.3779 53.0467 45.9556 52.6545 45.9556 51.825C45.9467 51.5677 45.9618 51.3102 46.0009 51.0557L46.4609 48.6123H47.7505L47.3131 50.9577C47.2736 51.1464 47.2509 51.3382 47.2452 51.5309C47.2452 51.8174 47.3508 52.0361 47.6826 52.0361C48.0144 52.0361 48.5725 51.5082 48.7384 50.6334L49.123 48.6123H50.4353Z" fill="#001D85"/>
<path d="M53.227 48.6123L53.4909 50.5278C53.5588 50.9803 53.604 51.282 53.6342 51.5686C53.7322 51.3122 53.8303 51.0256 54.0188 50.5505L54.8182 48.6274H56.1757L54.607 51.7646C54.2051 52.6991 53.6437 53.5565 52.9479 54.2986C52.5591 54.6748 52.0735 54.9359 51.5452 55.0527L51.2812 53.8989C51.5509 53.8244 51.8059 53.7045 52.0354 53.5444C52.3268 53.3512 52.5694 53.0931 52.7443 52.7903C52.7604 52.7561 52.7688 52.7187 52.7688 52.6809C52.7688 52.6431 52.7604 52.6058 52.7443 52.5716L51.8695 48.6123H53.227Z" fill="#001D85"/>
<path d="M60.5131 52.7375C60.0021 52.9705 59.4456 53.0864 58.8841 53.0768C58.6318 53.1071 58.376 53.0806 58.1352 52.9993C57.8945 52.9179 57.675 52.7838 57.4929 52.6066C57.3107 52.4295 57.1704 52.2139 57.0823 51.9756C56.9942 51.7372 56.9605 51.4822 56.9837 51.2292C56.9726 50.8798 57.0313 50.5317 57.1562 50.2052C57.2812 49.8787 57.4699 49.5804 57.7114 49.3276C57.9529 49.0749 58.2424 48.8728 58.5628 48.7331C58.8833 48.5935 59.2284 48.5191 59.5779 48.5142C59.7645 48.491 59.9539 48.5071 60.1338 48.5617C60.3137 48.6163 60.4801 48.708 60.6223 48.831C60.7645 48.954 60.8793 49.1055 60.9592 49.2757C61.0391 49.4459 61.0824 49.6309 61.0862 49.8189C61.0862 50.935 60.0003 51.3272 58.2431 51.3272C58.2458 51.4853 58.2928 51.6395 58.3788 51.7722C58.4833 51.8908 58.6141 51.9834 58.7608 52.0423C58.9075 52.1013 59.066 52.125 59.2235 52.1115C59.6471 52.1165 60.0658 52.0208 60.4452 51.8325L60.5131 52.7375ZM59.3743 49.4494C59.1255 49.4598 58.8878 49.5553 58.7011 49.7201C58.5144 49.8849 58.39 50.1088 58.3487 50.3543C59.3517 50.3543 59.857 50.2186 59.857 49.8264C59.8494 49.6002 59.676 49.4494 59.3743 49.4494Z" fill="#001D85"/>
<path d="M62.2305 52.9864L62.7885 50.0302C62.8941 49.4796 62.9695 48.997 63.0223 48.6124H64.1686L64.0781 49.3665C64.2437 49.1171 64.4676 48.9119 64.7305 48.7687C64.9933 48.6255 65.2871 48.5485 65.5864 48.5445C65.7421 48.5332 65.8984 48.5567 66.044 48.6131C66.1896 48.6695 66.3208 48.7575 66.4283 48.8708C66.5358 48.984 66.6168 49.1197 66.6655 49.268C66.7142 49.4163 66.7295 49.5736 66.7101 49.7285C66.7033 49.9814 66.6781 50.2334 66.6347 50.4826L66.152 53.0241H64.9077L65.3677 50.5279C65.3943 50.3658 65.4095 50.202 65.413 50.0377C65.413 49.736 65.2999 49.5173 64.9831 49.5173C64.6664 49.5173 64.0706 50.0452 63.8896 51.0256L63.5201 52.9638L62.2305 52.9864Z" fill="#001D85"/>
<path d="M73.3106 46.6289L72.3981 51.282C72.2879 51.8417 72.2198 52.4089 72.1945 52.9788H71.0331L71.1009 52.2699C70.9523 52.5168 70.7421 52.721 70.4909 52.8624C70.2398 53.0038 69.9563 53.0777 69.6681 53.0768C68.9139 53.0768 68.3106 52.4886 68.3106 51.4253C68.2965 51.0515 68.3571 50.6786 68.4888 50.3285C68.6206 49.9784 68.8208 49.6581 69.0778 49.3864C69.3348 49.1146 69.6435 48.8968 69.9857 48.7458C70.3279 48.5947 70.6968 48.5135 71.0708 48.5067C71.2736 48.5035 71.4754 48.5367 71.6665 48.6047L72.0436 46.6213L73.3106 46.6289ZM71.4554 49.6455C71.3053 49.541 71.1253 49.4881 70.9426 49.4946C70.1884 49.4946 69.6304 50.3921 69.6304 51.2292C69.6304 51.7571 69.8641 52.0512 70.2412 52.0512C70.6183 52.0512 71.0632 51.659 71.2291 50.8295L71.4554 49.6455Z" fill="#001D85"/>
<path d="M78.7022 50.3092C78.7249 50.6662 78.674 51.024 78.5526 51.3605C78.4313 51.697 78.242 52.005 77.9966 52.2652C77.7511 52.5255 77.4548 52.7325 77.126 52.8735C76.7973 53.0144 76.443 53.0862 76.0853 53.0844C75.8417 53.1016 75.5973 53.0672 75.368 52.9834C75.1386 52.8997 74.9296 52.7684 74.7544 52.5983C74.5793 52.4282 74.4421 52.223 74.3517 51.9961C74.2614 51.7693 74.2199 51.526 74.2301 51.282C74.2117 50.9268 74.2657 50.5715 74.3888 50.2377C74.512 49.904 74.7017 49.5988 74.9465 49.3406C75.1912 49.0825 75.4859 48.8768 75.8126 48.736C76.1393 48.5953 76.4912 48.5224 76.847 48.5218C77.0892 48.5048 77.3323 48.5389 77.5606 48.6217C77.7888 48.7046 77.9971 48.8345 78.172 49.003C78.3469 49.1715 78.4844 49.3748 78.5758 49.5998C78.6671 49.8248 78.7102 50.0665 78.7022 50.3092ZM75.5649 51.282C75.5649 51.7948 75.8138 52.1342 76.2663 52.1342C76.9676 52.1342 77.3673 51.101 77.3673 50.3469C77.3673 49.9472 77.1939 49.5173 76.6735 49.5173C75.9344 49.4872 75.5574 50.5731 75.5649 51.282Z" fill="#001D85"/>
<path d="M82.81 53.5973C83.1705 53.7586 83.5614 53.8409 83.9563 53.8386C84.1184 53.8488 84.2809 53.8268 84.4345 53.7738C84.588 53.7208 84.7295 53.6379 84.8508 53.5299C84.9721 53.422 85.0708 53.291 85.1412 53.1446C85.2116 52.9983 85.2523 52.8394 85.261 52.6772L85.3289 52.3077C85.188 52.5082 85.0003 52.6714 84.7822 52.7831C84.5641 52.8947 84.322 52.9516 84.077 52.9487C83.8808 52.9441 83.6876 52.8997 83.5091 52.8182C83.3306 52.7366 83.1706 52.6197 83.0387 52.4744C82.9068 52.3291 82.8058 52.1585 82.7419 51.973C82.6779 51.7875 82.6524 51.5909 82.6667 51.3952C82.6581 51.0094 82.7288 50.6259 82.8743 50.2685C83.0199 49.9111 83.2372 49.5873 83.5129 49.3173C83.7886 49.0472 84.1168 48.8366 84.4771 48.6985C84.8375 48.5604 85.2223 48.4977 85.6079 48.5143C86.1632 48.5045 86.7147 48.6071 87.2293 48.816L86.5657 52.4208C86.498 53.1576 86.1721 53.8467 85.6456 54.3665C85.1499 54.7134 84.5531 54.8858 83.9488 54.8567C83.4584 54.8765 82.9702 54.7809 82.5234 54.5777L82.81 53.5973ZM85.8266 49.5777C85.6774 49.5208 85.5187 49.4927 85.359 49.4947C84.6049 49.4947 84.0242 50.362 84.0242 51.1991C84.0242 51.6365 84.2203 51.9532 84.6124 51.9532C85.0046 51.9532 85.4646 51.4857 85.6004 50.7391L85.8266 49.5777Z" fill="#001D85"/>
<path d="M88.4141 52.9865L88.9043 50.3847C89.0325 49.721 89.0853 48.982 89.1305 48.6124H90.2466C90.2466 48.9066 90.1939 49.2007 90.1712 49.5023C90.2908 49.2256 90.4842 48.987 90.7303 48.8128C90.9764 48.6385 91.2656 48.5353 91.5664 48.5144H91.8077L91.5815 49.7738H91.3779C90.5558 49.7738 90.1712 50.528 90.0053 51.3651L89.7037 52.994L88.4141 52.9865Z" fill="#001D85"/>
<path d="M95.4042 52.9864C95.4042 52.73 95.4042 52.4359 95.4721 52.1191C95.3401 52.408 95.1276 52.6527 94.8601 52.8239C94.5926 52.9951 94.2814 53.0856 93.9638 53.0844C93.775 53.0803 93.5891 53.037 93.4179 52.9573C93.2467 52.8776 93.0939 52.7633 92.9692 52.6215C92.8444 52.4798 92.7505 52.3137 92.6932 52.1337C92.6359 51.9538 92.6166 51.7639 92.6365 51.5761C92.6274 51.1672 92.7032 50.7607 92.8593 50.3826C93.0153 50.0044 93.2481 49.6628 93.543 49.3792C93.8379 49.0957 94.1884 48.8765 94.5724 48.7354C94.9563 48.5943 95.3654 48.5344 95.7737 48.5595C96.2639 48.5624 96.7512 48.6334 97.2217 48.7707L96.7617 51.0331C96.6414 51.6822 96.5833 52.3413 96.5882 53.0015L95.4042 52.9864ZM95.7813 49.5249C95.666 49.5125 95.5497 49.5125 95.4344 49.5249C94.5973 49.5249 93.9939 50.543 93.9939 51.3574C93.9939 51.7873 94.1599 52.1116 94.5218 52.1116C94.8838 52.1116 95.3816 51.6742 95.5777 50.6033L95.7813 49.5249Z" fill="#001D85"/>
<path d="M98.4453 52.9865L98.9958 50.0303C99.109 49.4797 99.1768 48.9971 99.2296 48.6125H100.376L100.285 49.3666C100.451 49.1168 100.674 48.9112 100.937 48.7679C101.2 48.6246 101.494 48.5479 101.794 48.5446C101.949 48.5331 102.105 48.5565 102.251 48.6129C102.396 48.6694 102.527 48.7575 102.634 48.871C102.741 48.9844 102.821 49.1202 102.869 49.2686C102.916 49.4169 102.93 49.5741 102.91 49.7286C102.906 49.9813 102.883 50.2334 102.842 50.4827L102.359 53.0242H101.07L101.522 50.5959C101.553 50.4342 101.568 50.2701 101.567 50.1057C101.567 49.804 101.462 49.5853 101.138 49.5853C100.813 49.5853 100.225 50.1132 100.044 51.0936L99.6821 53.0318L98.4453 52.9865Z" fill="#001D85"/>
<path d="M109.517 46.6289L108.635 51.282C108.525 51.8417 108.457 52.4089 108.431 52.9788H107.247L107.308 52.2699C107.158 52.5163 106.948 52.7201 106.697 52.8614C106.446 53.0028 106.163 53.077 105.875 53.0768C105.121 53.0768 104.51 52.4886 104.51 51.4253C104.496 51.0515 104.556 50.6786 104.688 50.3285C104.82 49.9784 105.02 49.6581 105.277 49.3864C105.534 49.1146 105.843 48.8968 106.185 48.7458C106.527 48.5947 106.896 48.5135 107.27 48.5067C107.475 48.5029 107.68 48.5361 107.873 48.6047L108.243 46.6213L109.517 46.6289ZM107.67 49.6455C107.519 49.542 107.339 49.4891 107.157 49.4946C106.403 49.4946 105.837 50.3921 105.837 51.2292C105.837 51.7571 106.071 52.0512 106.448 52.0512C106.825 52.0512 107.27 51.659 107.443 50.8295L107.67 49.6455Z" fill="#001D85"/>
<path d="M113.951 52.7375C113.44 52.9705 112.883 53.0864 112.322 53.0768C112.069 53.1071 111.813 53.0806 111.573 52.9993C111.332 52.9179 111.113 52.7838 110.93 52.6066C110.748 52.4295 110.608 52.2139 110.52 51.9756C110.432 51.7372 110.398 51.4822 110.421 51.2292C110.41 50.8829 110.468 50.5378 110.59 50.2137C110.713 49.8897 110.898 49.593 111.136 49.3408C111.373 49.0886 111.658 48.8857 111.974 48.7439C112.29 48.602 112.631 48.524 112.978 48.5142C113.164 48.491 113.354 48.5071 113.534 48.5617C113.713 48.6163 113.88 48.708 114.022 48.831C114.164 48.954 114.279 49.1055 114.359 49.2757C114.439 49.4459 114.482 49.6309 114.486 49.8189C114.486 50.935 113.4 51.3272 111.643 51.3272C111.646 51.4853 111.693 51.6395 111.779 51.7722C111.883 51.8908 112.014 51.9834 112.161 52.0423C112.307 52.1013 112.466 52.125 112.623 52.1115C113.047 52.1165 113.466 52.0208 113.845 51.8325L113.951 52.7375ZM112.812 49.4494C112.563 49.4598 112.325 49.5553 112.139 49.7201C111.952 49.8849 111.827 50.1088 111.786 50.3543C112.789 50.3543 113.294 50.2186 113.294 49.8264C113.287 49.6002 113.121 49.4494 112.812 49.4494Z" fill="#001D85"/>
<path d="M115.836 51.8327C116.192 52.0139 116.583 52.1168 116.983 52.1343C117.345 52.1343 117.533 51.9609 117.533 51.7422C117.533 51.5235 117.39 51.3726 116.99 51.1766C116.739 51.0929 116.518 50.9389 116.352 50.733C116.186 50.5271 116.083 50.278 116.055 50.0152C116.055 49.1102 116.854 48.5069 117.986 48.5069C118.372 48.4904 118.757 48.5653 119.109 48.7256L118.808 49.6381C118.532 49.5084 118.23 49.4415 117.925 49.442C117.586 49.442 117.352 49.5929 117.352 49.8266C117.352 50.0604 117.533 50.1585 117.895 50.3319C118.257 50.5054 118.868 50.9202 118.868 51.531C118.868 52.534 118.016 53.0393 116.862 53.0393C116.391 53.0576 115.925 52.9397 115.52 52.6999L115.836 51.8327Z" fill="#001D85"/>
<path d="M122.836 52.9865L123.379 50.0303C123.477 49.4797 123.552 48.9971 123.605 48.6125H124.714L124.638 49.3138C124.802 49.0644 125.026 48.8603 125.29 48.7206C125.554 48.5808 125.848 48.5099 126.147 48.5144C126.393 48.4867 126.641 48.5576 126.836 48.7115C127.031 48.8654 127.157 49.09 127.187 49.3364C127.35 49.0843 127.573 48.8769 127.837 48.7333C128.1 48.5897 128.396 48.5144 128.696 48.5144C128.848 48.505 129 48.5296 129.141 48.5864C129.282 48.6432 129.409 48.7307 129.513 48.8426C129.616 48.9546 129.693 49.0881 129.738 49.2335C129.783 49.3789 129.796 49.5326 129.774 49.6833C129.767 49.9366 129.739 50.1888 129.691 50.4375L129.216 52.9865H127.972L128.409 50.5959C128.449 50.4201 128.472 50.2407 128.477 50.0604C128.477 49.7588 128.341 49.5401 128.04 49.5401C127.61 49.5401 127.187 50.1208 127.014 51.0031L126.644 52.9865H125.4L125.853 50.5808C125.889 50.4148 125.91 50.2455 125.913 50.0755C125.913 49.7814 125.815 49.5401 125.506 49.5401C125.061 49.5401 124.608 50.1585 124.442 51.0484L124.088 53.0167L122.836 52.9865Z" fill="#001D85"/>
<path d="M135.792 50.3092C135.815 50.6662 135.764 51.024 135.643 51.3605C135.521 51.697 135.332 52.005 135.087 52.2652C134.841 52.5255 134.545 52.7325 134.216 52.8735C133.887 53.0144 133.533 53.0862 133.175 53.0844C132.932 53.1018 132.687 53.0672 132.457 52.983C132.228 52.8987 132.019 52.7666 131.844 52.5955C131.669 52.4244 131.533 52.2182 131.444 51.9904C131.355 51.7627 131.315 51.5187 131.328 51.2745C131.309 50.9198 131.363 50.5652 131.486 50.2319C131.609 49.8987 131.798 49.5938 132.042 49.3358C132.285 49.0777 132.579 48.8719 132.905 48.7307C133.231 48.5895 133.582 48.5159 133.937 48.5143C134.18 48.4972 134.424 48.5314 134.653 48.6147C134.881 48.6981 135.09 48.8286 135.265 48.9979C135.44 49.1672 135.577 49.3715 135.668 49.5974C135.759 49.8233 135.801 50.0658 135.792 50.3092ZM132.655 51.282C132.655 51.7948 132.911 52.1342 133.356 52.1342C134.065 52.1342 134.457 51.101 134.457 50.3469C134.457 49.9472 134.292 49.5173 133.771 49.5173C133.025 49.4871 132.647 50.5731 132.655 51.282Z" fill="#001D85"/>
<path d="M137.074 52.9865L137.617 50.0303C137.715 49.4797 137.791 48.9971 137.843 48.6125H138.952L138.869 49.3138C139.033 49.0644 139.257 48.8603 139.521 48.7206C139.784 48.5808 140.079 48.5099 140.377 48.5144C140.624 48.4867 140.872 48.5576 141.067 48.7115C141.262 48.8654 141.388 49.09 141.418 49.3364C141.58 49.0838 141.803 48.876 142.067 48.7324C142.331 48.5887 142.626 48.5137 142.926 48.5144C143.081 48.499 143.238 48.5192 143.384 48.5733C143.53 48.6274 143.662 48.7141 143.769 48.8268C143.877 48.9394 143.958 49.0751 144.005 49.2235C144.052 49.372 144.065 49.5292 144.043 49.6833C144.035 49.9366 144.008 50.1888 143.96 50.4375L143.484 52.9865H142.24L142.678 50.5959C142.718 50.4201 142.74 50.2407 142.745 50.0604C142.745 49.7588 142.61 49.5401 142.3 49.5401C141.871 49.5401 141.456 50.1208 141.282 51.0031L140.913 52.9865H139.668L140.121 50.5808C140.154 50.4142 140.174 50.2452 140.181 50.0755C140.181 49.7814 140.083 49.5401 139.767 49.5401C139.329 49.5401 138.877 50.1585 138.711 51.0484L138.356 53.0167L137.074 52.9865Z" fill="#001D85"/>
<path d="M149.073 52.7376C148.561 52.9694 148.005 53.0853 147.444 53.077C147.192 53.1075 146.936 53.0811 146.696 52.9997C146.455 52.9183 146.236 52.784 146.055 52.6067C145.873 52.4294 145.733 52.2136 145.646 51.9753C145.559 51.7369 145.526 51.482 145.551 51.2293C145.539 50.8834 145.595 50.5385 145.717 50.2145C145.839 49.8905 146.023 49.5938 146.26 49.3414C146.497 49.0891 146.782 48.8861 147.097 48.7442C147.413 48.6022 147.754 48.5241 148.1 48.5144C148.99 48.5144 149.608 49.0046 149.608 49.8191C149.608 50.9352 148.522 51.3274 146.773 51.3274C146.775 51.4855 146.822 51.6396 146.908 51.7723C147.011 51.8914 147.14 51.9843 147.286 52.0433C147.431 52.1023 147.589 52.1257 147.745 52.1117C148.171 52.1164 148.592 52.0208 148.975 51.8327L149.073 52.7376ZM147.934 49.4495C147.684 49.4582 147.444 49.5531 147.256 49.718C147.068 49.8829 146.942 50.1077 146.901 50.3545C147.904 50.3545 148.409 50.2188 148.409 49.8266C148.409 49.6004 148.228 49.4495 147.934 49.4495Z" fill="#001D85"/>
<path d="M150.828 52.9865L151.379 50.0303C151.492 49.4797 151.56 48.9971 151.612 48.6125H152.759L152.668 49.3666C152.833 49.1168 153.057 48.9112 153.32 48.7679C153.583 48.6246 153.877 48.5479 154.177 48.5446C154.332 48.5331 154.488 48.5565 154.633 48.6129C154.779 48.6694 154.909 48.7575 155.016 48.871C155.123 48.9844 155.204 49.1202 155.251 49.2686C155.299 49.4169 155.313 49.5741 155.293 49.7286C155.288 49.9813 155.266 50.2334 155.225 50.4827L154.742 53.0242H153.468L153.92 50.5959C153.951 50.4342 153.966 50.2701 153.965 50.1057C153.965 49.804 153.86 49.5853 153.536 49.5853C153.211 49.5853 152.623 50.1132 152.442 51.0936L152.08 53.0318L150.828 52.9865Z" fill="#001D85"/>
<path d="M159.208 47.3831L158.974 48.6123H159.879L159.698 49.5852H158.763L158.469 51.0935C158.427 51.2768 158.402 51.4636 158.394 51.6515C158.387 51.7012 158.392 51.7518 158.409 51.7991C158.425 51.8465 158.452 51.8894 158.488 51.9245C158.524 51.9595 158.568 51.9858 158.615 52.0013C158.663 52.0167 158.714 52.0209 158.763 52.0135C158.884 52.0209 159.005 52.0209 159.125 52.0135L158.967 53.0241C158.721 53.0936 158.467 53.1267 158.213 53.1221C157.458 53.1221 157.081 52.73 157.081 52.187C157.082 51.9105 157.113 51.635 157.172 51.365L157.511 49.6229H156.953L157.134 48.65H157.7L157.873 47.7224L159.208 47.3831Z" fill="#001D85"/>
<path d="M165.315 50.3092C165.338 50.6662 165.287 51.024 165.166 51.3605C165.045 51.697 164.855 52.005 164.61 52.2652C164.364 52.5255 164.068 52.7325 163.739 52.8735C163.411 53.0144 163.056 53.0862 162.699 53.0844C162.454 53.1017 162.209 53.0671 161.979 52.9829C161.749 52.8987 161.54 52.7667 161.365 52.5958C161.19 52.4248 161.052 52.2187 160.963 51.9909C160.873 51.7632 160.832 51.519 160.843 51.2745C160.825 50.9192 160.879 50.5639 161.002 50.2302C161.125 49.8964 161.315 49.5912 161.56 49.3331C161.805 49.0749 162.099 48.8692 162.426 48.7285C162.753 48.5877 163.105 48.5148 163.46 48.5143C163.703 48.4972 163.947 48.5314 164.176 48.6147C164.405 48.6981 164.613 48.8286 164.788 48.9979C164.963 49.1672 165.101 49.3715 165.191 49.5974C165.282 49.8233 165.325 50.0658 165.315 50.3092ZM162.178 51.282C162.178 51.7948 162.427 52.1342 162.88 52.1342C163.581 52.1342 163.981 51.101 163.981 50.3469C163.981 49.9472 163.807 49.5173 163.287 49.5173C162.548 49.4871 162.14 50.5731 162.178 51.282Z" fill="#001D85"/>
<path d="M166.754 51.8327C167.11 52.0139 167.501 52.1168 167.901 52.1343C168.263 52.1343 168.451 51.9609 168.451 51.7422C168.451 51.5235 168.308 51.3726 167.908 51.1766C167.657 51.0929 167.436 50.9389 167.27 50.733C167.104 50.5271 167.001 50.278 166.973 50.0152C166.973 49.1102 167.772 48.5069 168.904 48.5069C169.29 48.4904 169.675 48.5653 170.027 48.7256L169.726 49.6381C169.452 49.5083 169.153 49.4413 168.851 49.442C168.504 49.442 168.278 49.5929 168.278 49.8266C168.278 50.0604 168.451 50.1585 168.813 50.3319C169.288 50.5732 169.786 50.9202 169.786 51.531C169.786 52.534 168.934 53.0393 167.78 53.0393C167.309 53.0567 166.843 52.9389 166.438 52.6999L166.754 51.8327Z" fill="#001D85"/>
</g>
<defs>
<clipPath id="clip0">
<rect width="184.97" height="55" fill="white"/>
</clipPath>
</defs>
</svg>
