<svg width="180" height="102" viewBox="0 0 180 102" fill="none" xmlns="http://www.w3.org/2000/svg">
<path d="M13.6815 101.317C10.2364 101.31 6.93458 99.9413 4.49857 97.5105C2.06256 95.0797 0.690824 91.7849 0.683594 88.3472V0.682617H179.315V88.3472C179.308 91.7849 177.936 95.0797 175.5 97.5105C173.064 99.9413 169.763 101.31 166.318 101.317H13.6815Z" fill="#060080"/>
<path d="M178.632 1.36528V88.3472C178.632 89.9608 178.313 91.5586 177.694 93.0494C177.076 94.5402 176.169 95.8948 175.025 97.0358C173.882 98.1768 172.524 99.0819 171.03 99.6994C169.536 100.317 167.935 100.635 166.318 100.635H13.682C12.0649 100.635 10.4637 100.317 8.96969 99.6994C7.47572 99.0819 6.11826 98.1768 4.97482 97.0358C3.83138 95.8948 2.92435 94.5402 2.30553 93.0494C1.6867 91.5586 1.3682 89.9608 1.3682 88.3472V1.36528H178.632ZM180 0H0V88.3472C0 91.9682 1.44149 95.4408 4.00736 98.0012C6.57322 100.562 10.0533 102 13.682 102H166.318C169.947 102 173.427 100.562 175.993 98.0012C178.559 95.4408 180 91.9682 180 88.3472V0Z" fill="#060080"/>
<path d="M62.1026 32.9442H29.6763C29.1391 32.9477 28.6049 33.0258 28.0892 33.1763C26.8833 33.5138 25.785 34.156 24.9005 35.0409C24.0161 35.9259 23.3755 37.0236 23.0406 38.2279L20.8788 46.993C20.8335 47.1444 20.8226 47.3041 20.8469 47.4603C20.8711 47.6165 20.9299 47.7654 21.019 47.8961C21.1081 48.0268 21.2252 48.1361 21.3619 48.2161C21.4986 48.296 21.6514 48.3446 21.8092 48.3582H36.0658C37.0085 48.301 37.8937 47.887 38.5409 47.2007C39.1881 46.5144 39.5485 45.6075 39.5485 44.6652C39.5485 43.7228 39.1881 42.8159 38.5409 42.1296C37.8937 41.4433 37.0085 41.0293 36.0658 40.9721H27.0904L26.4474 43.7026H36.0248C36.2886 43.7062 36.5406 43.8123 36.7271 43.9985C36.9136 44.1846 37.02 44.4361 37.0235 44.6993C37.0254 44.8313 37.0009 44.9624 36.9515 45.0849C36.9021 45.2074 36.8288 45.3189 36.7359 45.4129C36.643 45.5069 36.5322 45.5815 36.4102 45.6324C36.2881 45.6834 36.1571 45.7096 36.0248 45.7096H28.0619H22.9858C22.7259 45.7096 22.5617 45.3683 22.6301 45.0679L24.1214 39.0197C24.3244 37.9841 24.7984 37.0205 25.4953 36.2268C26.1922 35.4332 27.0871 34.8376 28.0892 34.5007C28.5954 34.3509 29.1211 34.2772 29.649 34.2822H62.2394C62.9704 34.2339 63.7022 34.3638 64.3716 34.6608C65.0411 34.9577 65.6281 35.4127 66.0819 35.9866C66.5358 36.5604 66.8429 37.2358 66.9767 37.9546C67.1106 38.6733 67.0672 39.4137 66.8502 40.112L62.4583 58.3794C62.1806 59.6891 61.5186 60.8868 60.5565 61.8199C59.5447 62.7848 58.1934 63.3143 56.794 63.2944H23.9573C23.1799 63.3232 22.409 63.1449 21.7236 62.7778C21.0383 62.4107 20.4633 61.868 20.0579 61.2055C19.435 60.1168 19.2632 58.8282 19.579 57.6148L20.0579 55.6215L20.8788 52.3039C20.9127 52.1793 20.9828 52.0675 21.0801 51.9825C21.1775 51.8975 21.2979 51.843 21.4261 51.826H34.0135C34.2893 51.826 34.5538 51.9354 34.7488 52.13C34.9438 52.3245 35.0533 52.5885 35.0533 52.8637C35.0533 53.1388 34.9438 53.4028 34.7488 53.5974C34.5538 53.7919 34.2893 53.9013 34.0135 53.9013H24.0257L23.3963 56.5363H34.1367C35.1164 56.5363 36.056 56.1479 36.7488 55.4566C37.4416 54.7653 37.8308 53.8277 37.8308 52.85C37.8308 51.8723 37.4416 50.9347 36.7488 50.2434C36.056 49.5521 35.1164 49.1637 34.1367 49.1637H21.5492C21.2117 49.1866 20.8882 49.3073 20.6184 49.511C20.3486 49.7148 20.1443 49.9926 20.0305 50.3106C20.0282 50.3378 20.0282 50.3652 20.0305 50.3925L18.2519 57.6148C18.0525 58.6021 18.1128 59.624 18.4269 60.5811C18.741 61.5381 19.2982 62.3977 20.0442 63.0759C21.0651 63.9875 22.3962 64.4758 23.7657 64.4412H56.794C58.3322 64.4671 59.8325 63.9643 61.0433 63.0172C62.254 62.0701 63.1014 60.7362 63.4434 59.2395L68.109 40.1393C68.3428 39.2531 68.361 38.324 68.1619 37.4295C67.9628 36.5349 67.5523 35.7008 66.9645 34.9967C66.3767 34.2926 65.6288 33.739 64.7831 33.382C63.9373 33.0249 63.0183 32.8748 62.1026 32.9442Z" fill="white"/>
<path d="M52.8381 53.9012H52.5371H42.5629V53.9831L41.9609 56.6181H52.9065C53.4944 56.6132 54.0739 56.478 54.6031 56.2222C55.219 55.9017 55.7357 55.4195 56.0973 54.8277C56.459 54.2359 56.6519 53.5568 56.6554 52.8636C56.6551 52.1751 56.463 51.5003 56.1006 50.9144C55.7382 50.3286 55.2197 49.8548 54.6031 49.546C54.071 49.2698 53.4788 49.1291 52.8792 49.1364H52.5234C51.3885 49.0735 50.3209 48.5793 49.5397 47.7554C48.7586 46.9314 48.3233 45.8403 48.3233 44.7061C48.3233 43.5718 48.7586 42.4807 49.5397 41.6567C50.3209 40.8328 51.3885 40.3386 52.5234 40.2757H63.3048L63.9479 37.5452H52.5371C50.632 37.5452 48.805 38.3003 47.4579 39.6445C46.1109 40.9887 45.3541 42.8119 45.3541 44.7129C45.3541 46.6139 46.1109 48.437 47.4579 49.7812C48.805 51.1254 50.632 51.8806 52.5371 51.8806H52.8381C53.1139 51.8806 53.3784 51.9899 53.5734 52.1845C53.7684 52.3791 53.8779 52.643 53.8779 52.9182C53.8779 53.1934 53.7684 53.4573 53.5734 53.6519C53.3784 53.8465 53.1139 53.9558 52.8381 53.9558V53.9012Z" fill="white"/>
<path d="M36.01 37.4497H27.9513L27.2809 40.1803H36.051C37.1913 40.1907 38.2846 40.6352 39.1075 41.423C39.9304 42.2108 40.4208 43.2824 40.4784 44.4189C40.5361 45.5553 40.1566 46.6709 39.4177 47.5376C38.6787 48.4043 37.636 48.9567 36.5025 49.0819C37.2986 49.6199 37.9024 50.3967 38.2266 51.2999C38.5508 52.2031 38.5785 53.1858 38.3057 54.1058C38.033 55.0257 37.4739 55.8352 36.7094 56.417C35.9449 56.9988 35.0147 57.3227 34.0535 57.3418H23.1763L22.4922 60.0724H34.0671C35.9856 60.0652 37.823 59.2996 39.177 57.9434C40.531 56.5872 41.2912 54.7508 41.2912 52.8364C41.2836 51.8971 41.0883 50.9688 40.7166 50.1058C41.4963 49.4134 42.117 48.5612 42.5363 47.6074C42.9512 46.6938 43.1658 45.7024 43.1658 44.6993C43.1658 43.6963 42.9512 42.7049 42.5363 41.7913C41.9916 40.5111 41.0835 39.4179 39.9239 38.6465C38.7642 37.875 37.4037 37.459 36.01 37.4497Z" fill="white"/>
<path d="M52.5397 43.6891C52.6708 43.6221 52.8167 43.5892 52.9639 43.5935H62.5413L63.1433 40.9585H52.5397C51.6184 41.0378 50.7604 41.4591 50.1352 42.1391C49.5101 42.8191 49.1632 43.7083 49.1632 44.6311C49.1632 45.5539 49.5101 46.4431 50.1352 47.1231C50.7604 47.8031 51.6184 48.2244 52.5397 48.3037H52.8955C53.9464 48.2958 54.9672 48.6541 55.7819 49.3167C56.5966 49.9792 57.1541 50.9047 57.3583 51.9334C57.5625 52.9622 57.4007 54.0298 56.9008 54.9523C56.4008 55.8748 55.594 56.5943 54.6194 56.9869C54.0795 57.2188 53.4969 57.3351 52.9091 57.3282H52.5397H42.5382H41.7994L41.0469 60.0724H52.9502C53.4985 60.0719 54.0449 60.0077 54.5783 59.8813C56.157 59.5166 57.5652 58.6291 58.5736 57.3634C59.5819 56.0977 60.1308 54.5284 60.1308 52.9115C60.1308 51.2946 59.5819 49.7254 58.5736 48.4597C57.5652 47.194 56.157 46.3064 54.5783 45.9418C54.0443 45.8199 53.498 45.7603 52.9502 45.7643C52.8037 45.7618 52.6594 45.7293 52.526 45.6687C52.3409 45.59 52.1831 45.4588 52.0722 45.2913C51.9612 45.1238 51.9021 44.9274 51.9021 44.7267C51.9021 44.5259 51.9612 44.3295 52.0722 44.1621C52.1831 43.9946 52.3409 43.8633 52.526 43.7846L52.5397 43.6891Z" fill="white"/>
<path d="M72.9102 60.1542L78.0683 37.5725H83.801C85.3881 37.5725 90.382 37.5725 90.2315 42.7742C90.1759 43.8594 89.8223 44.9085 89.2094 45.8066C88.5965 46.7048 87.7478 47.4175 86.7563 47.8667C87.717 48.2037 88.5178 48.8849 89.0033 49.7781C89.4887 50.6712 89.6242 51.7126 89.3833 52.6998C89.2443 53.8537 88.8476 54.9617 88.2224 55.9423C87.5973 56.9229 86.7597 57.7511 85.7712 58.3657C85.1998 58.8594 84.5275 59.2228 83.801 59.4306C82.7281 59.7618 81.6129 59.9366 80.49 59.9494L72.9102 60.1542ZM78.0683 56.0584H80.1342C81.425 56.1009 82.7028 55.7892 83.8284 55.1573C84.4991 54.5153 84.896 53.64 84.9366 52.7135C84.9615 52.3541 84.8834 51.995 84.7114 51.6783C84.5393 51.3616 84.2805 51.1003 83.9652 50.9249C82.9442 50.4821 81.8344 50.2811 80.7226 50.3379H80.0248H79.5459L78.0683 56.0584ZM80.49 46.1601H81.1604H81.5572C82.6136 46.2194 83.6656 45.983 84.5946 45.4775C84.929 45.2884 85.2052 45.0116 85.3933 44.6771C85.5814 44.3426 85.6743 43.9631 85.6618 43.5797C85.6774 43.2821 85.6071 42.9861 85.4592 42.7272C85.3112 42.4682 85.0919 42.2571 84.8272 42.1189C83.9939 41.7662 83.0899 41.6119 82.1865 41.6683H81.4614L80.49 46.1601Z" fill="white"/>
<path d="M89.1094 60.1542L94.4043 37.5725H106.376L105.555 41.6001H97.7564L96.7029 46.8974H104.173L103.325 50.9113H95.5946L94.3222 56.1403H102.381L101.368 60.2361L89.1094 60.1542Z" fill="white"/>
<path d="M120.225 43.1974H115.778C115.778 43.1974 115.997 40.9583 113.918 40.9583C113.22 40.9072 112.528 41.125 111.986 41.5669C111.444 42.0088 111.092 42.6411 111.003 43.3339C110.894 45.9825 114.41 46.2146 115.724 46.9246C116.553 47.2934 117.264 47.8839 117.779 48.6308C118.293 49.3777 118.59 50.252 118.638 51.1569C118.665 52.3602 118.451 53.5567 118.006 54.6757C117.562 55.7947 116.897 56.8133 116.052 57.6713C115.206 58.5294 114.196 59.2093 113.082 59.671C111.968 60.1326 110.773 60.3665 109.567 60.3589C108.63 60.3807 107.7 60.1977 106.842 59.8227C105.984 59.4477 105.219 58.8898 104.6 58.1881C102.958 56.5498 103.574 53.3414 103.574 53.3414H108.034C108.034 53.3414 107.624 55.1026 108.842 55.7306C109.373 55.9918 109.958 56.1228 110.55 56.1128C111.142 56.1027 111.723 55.9519 112.245 55.6729C112.767 55.3939 113.214 54.9947 113.55 54.5085C113.886 54.0222 114.101 53.463 114.178 52.8772C114.246 52.3249 114.136 51.7651 113.863 51.2798C113.357 50.0374 109.197 49.0681 108.144 48.2762C107.654 47.8955 107.261 47.4058 106.995 46.8464C106.729 46.287 106.598 45.6732 106.611 45.0541C106.708 42.9012 107.572 40.8534 109.047 39.279C109.842 38.4669 110.801 37.8317 111.859 37.4153C112.918 36.9988 114.053 36.8104 115.19 36.8625C120.088 36.9444 120.266 40.6716 120.266 42.4738V42.897L120.225 43.1974Z" fill="white"/>
<path d="M141.061 44.1941H137.203C137.203 44.1941 137.326 41.6684 133.098 41.4636C128.309 41.1496 124.656 46.4059 124.355 50.0785C124.095 53.2186 123.945 56.4134 128.46 56.823C129.565 56.8587 130.661 56.613 131.645 56.109C132.629 55.605 133.468 54.8593 134.083 53.9422L139.063 53.7374C139.063 53.7374 136.163 59.3351 131.278 60.2908C127.174 61.069 122.85 60.5911 120.866 55.7171C118.636 50.1604 123.138 43.2111 123.138 43.2111C123.138 43.2111 126.75 37.1766 133.071 37.1356C138.188 37.1083 141.8 41.0813 141.061 44.1941Z" fill="white"/>
<path d="M160.613 51.4574C156.672 60.796 148.874 61.6288 145.234 59.8676C141.595 58.1064 137.901 52.6043 142.498 43.8801C143.693 41.2853 145.824 39.2354 148.467 38.1396C151.109 37.0438 154.069 36.9827 156.755 37.9685C158.328 38.6921 164.567 42.1189 160.613 51.4574ZM155.414 41.8049C153.676 40.9175 150.215 40.8629 146.89 44.9178C143.565 48.9726 143.661 54.9935 146.397 56.1267C150.023 57.5876 152.965 55.7171 155.345 52.3995C157.726 49.0819 159.217 43.689 155.414 41.8049Z" fill="white"/>
<path d="M33.4384 73.9162C33.0473 74.0716 32.6274 74.1415 32.207 74.121C31.9335 74.151 31.6567 74.1214 31.3958 74.0342C31.1349 73.9471 30.8961 73.8045 30.6957 73.6163C30.4954 73.4281 30.3384 73.1988 30.2356 72.9441C30.1327 72.6895 30.0864 72.4156 30.1 72.1414C30.084 71.6816 30.1848 71.2252 30.3929 70.8147C30.601 70.4042 30.9097 70.0528 31.2903 69.7931C31.7985 69.4517 32.402 69.2796 33.0142 69.3016C33.3664 69.2869 33.7172 69.3523 34.0404 69.4927L33.7667 70.3119C33.4972 70.2044 33.2085 70.1533 32.9184 70.1617C32.5281 70.1535 32.1467 70.2787 31.8376 70.5167C31.6248 70.7062 31.4568 70.9404 31.3456 71.2024C31.2344 71.4644 31.1828 71.7478 31.1945 72.0322C31.1799 72.199 31.2021 72.367 31.2595 72.5243C31.3169 72.6817 31.4081 72.8246 31.5268 72.943C31.6454 73.0614 31.7886 73.1525 31.9463 73.2098C32.104 73.267 32.2724 73.2891 32.4396 73.2746C32.7442 73.2823 33.0471 73.2265 33.3289 73.1107L33.4384 73.9162Z" fill="white"/>
<path d="M38.1852 71.9776C38.202 72.2549 38.1617 72.5327 38.0668 72.7939C37.9719 73.055 37.8244 73.294 37.6334 73.4961C37.4424 73.6983 37.212 73.8592 36.9563 73.969C36.7005 74.0788 36.425 74.1352 36.1466 74.1347C35.9612 74.144 35.7759 74.1155 35.602 74.0511C35.428 73.9866 35.269 73.8875 35.1346 73.7598C35.0002 73.6321 34.8933 73.4784 34.8203 73.3082C34.7473 73.1379 34.7097 72.9546 34.71 72.7695C34.6951 72.4933 34.7368 72.217 34.8326 71.9574C34.9283 71.6978 35.0761 71.4605 35.2669 71.2599C35.4578 71.0593 35.6876 70.8996 35.9423 70.7906C36.1971 70.6816 36.4714 70.6256 36.7486 70.626C36.9328 70.6168 37.117 70.6448 37.29 70.7084C37.4631 70.7721 37.6215 70.8699 37.7556 70.9962C37.8898 71.1224 37.9971 71.2745 38.0709 71.4431C38.1447 71.6118 38.1836 71.7936 38.1852 71.9776ZM35.7498 72.7012C35.7498 73.0971 35.9413 73.3702 36.2971 73.3702C36.6528 73.3702 37.1454 72.5647 37.1454 72.0049C37.1454 71.6909 37.0222 71.3496 36.6118 71.3496C36.2013 71.3496 35.7361 72.1824 35.7498 72.7012Z" fill="white"/>
<path d="M39.1836 74.0528L39.6761 71.7591C39.7582 71.3359 39.813 70.9536 39.8677 70.6533H40.757V71.2267C40.8827 71.0259 41.0585 70.8612 41.2671 70.7487C41.4758 70.6363 41.7102 70.5798 41.9474 70.585C42.0682 70.5761 42.1896 70.594 42.3027 70.6374C42.4158 70.6808 42.5179 70.7487 42.6016 70.8361C42.6853 70.9236 42.7486 71.0284 42.7868 71.1431C42.8251 71.2579 42.8375 71.3797 42.823 71.4997C42.8359 71.6952 42.8359 71.8913 42.823 72.0868L42.4399 74.0528H41.4411L41.7969 72.1687C41.8041 72.0414 41.8041 71.9138 41.7969 71.7864C41.7969 71.5543 41.7148 71.3905 41.4685 71.3905C41.2222 71.3905 40.757 71.8001 40.6202 72.551L40.3329 74.0528H39.1836Z" fill="white"/>
<path d="M43.9181 73.1654C44.1951 73.3039 44.498 73.383 44.8075 73.3975C45.0948 73.3975 45.2453 73.2609 45.2453 73.0834C45.2453 72.906 45.1358 72.8104 44.8212 72.6466C44.6262 72.5819 44.4541 72.4626 44.3254 72.3027C44.1968 72.1429 44.1171 71.9494 44.096 71.7455C44.096 71.0492 44.7117 70.585 45.5873 70.585C45.8881 70.5697 46.1882 70.6258 46.463 70.7488L46.2304 71.4588C46.0159 71.3602 45.7825 71.309 45.5463 71.3086C45.2863 71.3086 45.1085 71.4315 45.1085 71.609C45.1085 71.7864 45.2453 71.8684 45.5189 72.0049C45.7228 72.0694 45.9036 72.1913 46.0396 72.3561C46.1755 72.5208 46.2608 72.7212 46.2851 72.9333C46.2851 73.7115 45.6147 74.1211 44.7254 74.1211C44.3567 74.1354 43.9915 74.0455 43.6719 73.8617L43.9181 73.1654Z" fill="white"/>
<path d="M49.3236 69.7112L49.132 70.6532H49.8572L49.7203 71.4178H48.9952L48.7626 72.5646C48.7501 72.71 48.7501 72.8561 48.7626 73.0015C48.7583 73.0402 48.7627 73.0794 48.7756 73.1162C48.7885 73.1529 48.8095 73.1863 48.8371 73.2139C48.8647 73.2414 48.8982 73.2624 48.935 73.2753C48.9719 73.2881 49.0111 73.2926 49.0499 73.2882H49.2552L49.132 74.0664C48.9421 74.1272 48.7431 74.1549 48.5437 74.1483C47.9417 74.1483 47.6544 73.8343 47.6544 73.4111C47.6598 73.1995 47.6873 72.989 47.7365 72.7831L47.9964 71.4178H47.5586L47.7091 70.6532H48.1469L48.2837 69.9433L49.3236 69.7112Z" fill="white"/>
<path d="M50.5156 74.0528L50.8987 72.0322C50.9945 71.5134 51.0355 70.9536 51.0629 70.6669H51.9933C51.9933 70.899 51.9933 71.1311 51.9249 71.3632C52.016 71.1481 52.1654 70.9626 52.3563 70.8275C52.5473 70.6925 52.7722 70.6132 53.0057 70.5986H53.1973L53.0057 71.568H52.8142C52.1711 71.568 51.8701 72.1414 51.747 72.8104L51.5144 74.0664L50.5156 74.0528Z" fill="white"/>
<path d="M57.4641 70.6533L57.0263 72.947C56.9442 73.3839 56.8895 73.7525 56.8484 74.0529H55.9591L56.0275 73.4931C55.8952 73.6843 55.7198 73.8419 55.5155 73.9533C55.3112 74.0648 55.0835 74.1269 54.8508 74.1348C54.3036 74.1348 53.9752 73.8208 53.9752 73.1791C53.951 72.9704 53.951 72.7597 53.9752 72.5511L54.3309 70.6533H55.3297L54.9877 72.4828C54.9754 72.6282 54.9754 72.7743 54.9877 72.9197C54.9877 73.1381 55.0697 73.3156 55.3297 73.3156C55.5897 73.3156 56.0138 72.906 56.1506 72.2234L56.4516 70.6533H57.4641Z" fill="white"/>
<path d="M59.6399 70.6533L59.8451 72.1415C59.8451 72.4828 59.9272 72.7285 59.9682 72.947C59.9682 72.7422 60.1187 72.5237 60.2555 72.1551L60.8849 70.6533H61.9384L60.7207 73.0972C60.3815 73.8181 59.9184 74.4742 59.3525 75.0359C59.0495 75.3293 58.6704 75.5326 58.258 75.6229L58.0391 74.7628C58.2431 74.7006 58.4367 74.6086 58.6137 74.4897C58.8436 74.3399 59.0356 74.139 59.1747 73.9027C59.196 73.8501 59.196 73.7914 59.1747 73.7388L58.5043 70.6533H59.6399Z" fill="white"/>
<path d="M65.304 73.8615C64.9097 74.0426 64.4792 74.1313 64.0452 74.1209C63.8566 74.136 63.6668 74.1119 63.488 74.0501C63.3091 73.9883 63.1451 73.8901 63.0062 73.7618C62.8673 73.6335 62.7566 73.4778 62.6811 73.3046C62.6056 73.1314 62.567 72.9445 62.5676 72.7556C62.5585 72.4873 62.6026 72.2199 62.6976 71.9687C62.7925 71.7175 62.9364 71.4876 63.1208 71.2921C63.3052 71.0967 63.5266 70.9396 63.7721 70.8299C64.0177 70.7202 64.2825 70.6601 64.5515 70.6531C64.6968 70.6338 64.8445 70.6454 64.985 70.6871C65.1255 70.7289 65.2556 70.7997 65.3667 70.8951C65.4778 70.9905 65.5674 71.1083 65.6297 71.2407C65.692 71.3731 65.7255 71.5172 65.7281 71.6634C65.7281 72.5372 64.8935 72.8512 63.5253 72.8102C63.53 72.9318 63.5679 73.0498 63.6348 73.1516C63.7118 73.2456 63.8106 73.3195 63.9226 73.3671C64.0346 73.4146 64.1565 73.4344 64.2778 73.4246C64.6099 73.4281 64.938 73.3533 65.2356 73.2062L65.304 73.8615ZM64.4283 71.3084C64.2323 71.3153 64.0447 71.3899 63.8975 71.5193C63.7503 71.6488 63.6526 71.8251 63.6211 72.0184C64.401 72.0184 64.7977 71.9091 64.7977 71.6088C64.7977 71.3084 64.6472 71.3084 64.4283 71.3084Z" fill="white"/>
<path d="M66.6445 74.0528L67.0413 71.7591C67.1371 71.3359 67.1918 70.9536 67.2329 70.6533H68.1222L68.0538 71.2267C68.1794 71.0259 68.3552 70.8612 68.5639 70.7487C68.7726 70.6363 69.007 70.5798 69.2441 70.585C69.365 70.5761 69.4863 70.594 69.5994 70.6374C69.7125 70.6808 69.8146 70.7487 69.8983 70.8361C69.982 70.9236 70.0453 71.0284 70.0836 71.1431C70.1219 71.2579 70.1342 71.3797 70.1198 71.4997C70.1326 71.6952 70.1326 71.8913 70.1198 72.0868L69.7777 74.0528H68.7789L69.1347 72.1687C69.1488 72.0417 69.1488 71.9135 69.1347 71.7864C69.1347 71.5543 69.0389 71.3905 68.7926 71.3905C68.5463 71.3905 68.0811 71.8001 67.9443 72.551L67.657 74.0528H66.6445Z" fill="white"/>
<path d="M75.2511 69.124L74.567 72.7283C74.4801 73.179 74.4252 73.6352 74.4028 74.0936H73.4861V73.5475C73.3651 73.7359 73.1994 73.8918 73.0038 74.0013C72.8081 74.1108 72.5885 74.1706 72.3642 74.1755C71.7896 74.1755 71.3107 73.7113 71.3107 72.8922C71.2979 72.6014 71.3437 72.3111 71.4455 72.0384C71.5474 71.7657 71.7031 71.5162 71.9035 71.3048C72.1039 71.0934 72.3449 70.9243 72.612 70.8077C72.8792 70.691 73.1672 70.6292 73.4588 70.6258C73.6127 70.5993 73.77 70.5993 73.924 70.6258L74.2113 69.0967L75.2511 69.124ZM73.8829 71.4586C73.7675 71.3759 73.6282 71.3328 73.4861 71.3357C72.8841 71.3357 72.46 72.032 72.46 72.701C72.46 73.1106 72.6379 73.3427 72.9389 73.3427C73.2399 73.3427 73.5819 73.0287 73.7051 72.387L73.8829 71.4586Z" fill="white"/>
<path d="M79.4516 71.9775C79.4684 72.2548 79.4281 72.5326 79.3332 72.7938C79.2383 73.0549 79.0908 73.2939 78.8998 73.496C78.7088 73.6982 78.4783 73.8591 78.2226 73.9689C77.9669 74.0787 77.6914 74.1351 77.413 74.1346C77.0501 74.1346 76.7021 73.9908 76.4455 73.7348C76.1889 73.4787 76.0448 73.1314 76.0448 72.7694C76.0244 72.4977 76.0588 72.2248 76.1461 71.9667C76.2334 71.7086 76.3717 71.4706 76.5529 71.2669C76.7341 71.0632 76.9545 70.8978 77.2009 70.7807C77.4474 70.6635 77.7149 70.597 77.9876 70.5849C78.1775 70.5716 78.3681 70.5979 78.5472 70.6623C78.7263 70.7266 78.89 70.8275 79.0278 70.9586C79.1655 71.0897 79.2744 71.248 79.3474 71.4234C79.4204 71.5989 79.4558 71.7876 79.4516 71.9775ZM77.0162 72.7011C77.0162 73.097 77.2077 73.3701 77.5498 73.3701C77.8918 73.3701 78.4117 72.5646 78.4117 72.0048C78.4117 71.6908 78.2749 71.3495 77.8781 71.3495C77.4814 71.3495 77.0025 72.1823 77.0162 72.7011Z" fill="white"/>
<path d="M82.6389 74.5306C82.9197 74.651 83.2226 74.7115 83.5282 74.708C84.0344 74.708 84.4039 74.4896 84.5544 73.807V73.5202C84.4443 73.6787 84.2969 73.8076 84.1251 73.8957C83.9533 73.9838 83.7624 74.0284 83.5693 74.0254C83.4176 74.0222 83.2682 73.988 83.1304 73.9249C82.9925 73.8618 82.8691 73.7712 82.7678 73.6585C82.6665 73.5459 82.5894 73.4137 82.5413 73.2702C82.4933 73.1266 82.4752 72.9747 82.4884 72.824C82.4779 72.5189 82.532 72.215 82.6471 71.9322C82.7623 71.6494 82.936 71.394 83.1567 71.1827C83.3775 70.9714 83.6405 70.8089 83.9285 70.7059C84.2165 70.6029 84.523 70.5617 84.828 70.5849C85.2591 70.575 85.6876 70.654 86.0867 70.817L85.5805 73.6158C85.5059 74.1787 85.2403 74.699 84.828 75.0903C84.4273 75.3651 83.9446 75.4952 83.4598 75.4589C83.0799 75.4719 82.7017 75.402 82.3516 75.2542L82.6389 74.5306ZM84.9785 71.4041C84.8607 71.3854 84.7406 71.3854 84.6228 71.4041C84.0071 71.4041 83.5829 72.0731 83.5829 72.7693C83.5829 73.1107 83.7334 73.3701 84.0344 73.3701C84.3355 73.3701 84.7049 73.0014 84.8006 72.428L84.9785 71.4041Z" fill="white"/>
<path d="M87.0039 74.0528L87.387 72.0322C87.4828 71.5134 87.5238 70.9536 87.5512 70.6669H88.4268C88.4268 70.899 88.4268 71.1311 88.4268 71.3632C88.518 71.1481 88.6674 70.9626 88.8583 70.8275C89.0492 70.6925 89.2741 70.6132 89.5077 70.5986H89.6993L89.5077 71.568H89.3435C88.7005 71.568 88.3995 72.1414 88.2763 72.8104L88.0437 74.0664L87.0039 74.0528Z" fill="white"/>
<path d="M92.4365 74.0528C92.4365 73.848 92.4365 73.6295 92.4365 73.3838C92.3366 73.6025 92.1773 73.7888 91.9765 73.9216C91.7757 74.0543 91.5417 74.1282 91.3009 74.1347C91.1521 74.1319 91.0055 74.098 90.8705 74.0353C90.7356 73.9726 90.6153 73.8824 90.5174 73.7705C90.4195 73.6587 90.3461 73.5276 90.3019 73.3858C90.2578 73.2439 90.2439 73.0944 90.2611 72.9469C90.251 72.6281 90.3076 72.3108 90.4273 72.0151C90.5471 71.7194 90.7273 71.4519 90.9565 71.2297C91.1856 71.0074 91.4587 70.8353 91.7583 70.7243C92.0579 70.6133 92.3774 70.5658 92.6964 70.5849C93.081 70.5834 93.4637 70.6386 93.8321 70.7488L93.4626 72.5236C93.3746 73.0285 93.3334 73.5404 93.3395 74.0528H92.4365ZM92.7238 71.3222H92.4639C91.8071 71.3222 91.3419 72.1141 91.3419 72.6875C91.3419 73.0151 91.4651 73.2472 91.7524 73.2472C92.0397 73.2472 92.4228 72.9059 92.5733 72.0731L92.7238 71.3222Z" fill="white"/>
<path d="M94.8008 74.0527L95.2249 71.7591C95.307 71.3358 95.3617 70.9536 95.4028 70.6532H96.2921V71.2266C96.4237 71.0284 96.6027 70.866 96.8129 70.754C97.023 70.642 97.2579 70.5839 97.4961 70.5849C97.6165 70.5756 97.7374 70.5933 97.85 70.6368C97.9626 70.6803 98.064 70.7485 98.1467 70.8362C98.2294 70.924 98.2914 71.0292 98.3279 71.144C98.3645 71.2588 98.3748 71.3804 98.3581 71.4997C98.371 71.6952 98.371 71.8913 98.3581 72.0867L97.9887 74.0527H96.9899L97.3456 72.1687C97.3529 72.0413 97.3529 71.9137 97.3456 71.7864C97.3456 71.5543 97.2635 71.3905 97.0173 71.3905C96.771 71.3905 96.3058 71.8 96.169 72.5509L95.7722 74.0527H94.8008Z" fill="white"/>
<path d="M103.408 69.124L102.724 72.7283C102.629 73.1778 102.575 73.6346 102.559 74.0936H101.643V73.5475C101.523 73.734 101.359 73.8887 101.166 73.9981C100.973 74.1075 100.756 74.1684 100.534 74.1755C100.378 74.1675 100.224 74.1271 100.084 74.0568C99.9433 73.9866 99.819 73.8881 99.7187 73.7674C99.6184 73.6468 99.5443 73.5068 99.501 73.3561C99.4577 73.2055 99.4462 73.0475 99.4672 72.8922C99.4563 72.6019 99.5034 72.3124 99.606 72.0405C99.7085 71.7686 99.8643 71.5199 100.064 71.3089C100.264 71.0978 100.505 70.9287 100.771 70.8114C101.037 70.6941 101.324 70.631 101.615 70.6258C101.769 70.5993 101.927 70.5993 102.081 70.6258L102.382 69.0967L103.408 69.124ZM102.039 71.4586C101.924 71.3759 101.785 71.3328 101.643 71.3357C101.041 71.3357 100.617 72.032 100.617 72.701C100.617 73.1106 100.794 73.3427 101.082 73.3427C101.369 73.3427 101.725 73.0287 101.862 72.387L102.039 71.4586Z" fill="white"/>
<path d="M106.857 73.8617C106.458 74.044 106.023 74.1327 105.584 74.1211C105.396 74.1362 105.206 74.1121 105.027 74.0503C104.848 73.9885 104.684 73.8903 104.545 73.762C104.406 73.6337 104.296 73.478 104.22 73.3048C104.145 73.1316 104.106 72.9447 104.107 72.7558C104.098 72.4876 104.142 72.2201 104.237 71.9689C104.332 71.7178 104.475 71.4878 104.66 71.2924C104.844 71.0969 105.066 70.9398 105.311 70.8302C105.557 70.7205 105.822 70.6604 106.091 70.6533C106.788 70.6533 107.281 71.0356 107.281 71.6636C107.281 72.5374 106.433 72.8514 105.078 72.8105C105.077 72.931 105.11 73.0492 105.174 73.1518C105.254 73.2452 105.356 73.3185 105.47 73.3659C105.584 73.4133 105.707 73.4335 105.831 73.4248C106.163 73.4283 106.491 73.3535 106.788 73.2064L106.857 73.8617ZM105.967 71.3087C105.773 71.3161 105.587 71.3911 105.442 71.5208C105.297 71.6504 105.202 71.8265 105.174 72.0186C105.954 72.0186 106.337 71.9094 106.337 71.609C106.337 71.3087 106.2 71.3087 105.967 71.3087Z" fill="white"/>
<path d="M108.319 73.1654C108.595 73.3039 108.898 73.383 109.208 73.3975C109.495 73.3975 109.632 73.2609 109.632 73.0835C109.632 72.906 109.523 72.8104 109.208 72.6466C109.013 72.5819 108.841 72.4626 108.712 72.3027C108.584 72.1429 108.504 71.9494 108.483 71.7455C108.483 71.0492 109.112 70.585 109.988 70.585C110.288 70.5697 110.589 70.6258 110.863 70.7488L110.631 71.4588C110.416 71.3602 110.183 71.309 109.947 71.3086C109.673 71.3086 109.495 71.4315 109.495 71.609C109.495 71.7864 109.632 71.8684 109.919 72.0049C110.122 72.07 110.3 72.1925 110.434 72.3574C110.568 72.5222 110.65 72.7223 110.672 72.9333C110.672 73.7115 110.015 74.1211 109.112 74.1211C108.752 74.1318 108.397 74.0419 108.086 73.8617L108.319 73.1654Z" fill="white"/>
<path d="M113.766 74.0528L114.19 71.7592C114.258 71.3359 114.313 70.9536 114.354 70.6533H115.216V71.2131C115.333 71.0302 115.492 70.8778 115.68 70.7686C115.868 70.6594 116.08 70.5964 116.297 70.585C116.489 70.5657 116.68 70.622 116.831 70.7419C116.982 70.8618 117.08 71.0358 117.104 71.2267C117.227 71.0299 117.399 70.8678 117.602 70.7555C117.806 70.6432 118.034 70.5846 118.267 70.585C118.384 70.5778 118.502 70.5967 118.611 70.6405C118.721 70.6842 118.819 70.7517 118.899 70.8379C118.978 70.9242 119.038 71.0271 119.073 71.1392C119.108 71.2513 119.118 71.3698 119.102 71.4861C119.114 71.6816 119.114 71.8777 119.102 72.0732L118.732 74.0528H117.761L118.103 72.1961C118.115 72.0598 118.115 71.9227 118.103 71.7865C118.103 71.5407 117.993 71.3769 117.761 71.3769C117.528 71.3769 117.09 71.8274 116.967 72.5101L116.68 74.0528H115.75L116.092 72.1824C116.103 72.0552 116.103 71.9273 116.092 71.8001C116.092 71.568 116.009 71.3769 115.777 71.3769C115.544 71.3769 115.079 71.8547 114.956 72.5237L114.669 74.0528H113.766Z" fill="white"/>
<path d="M123.836 71.9775C123.853 72.2571 123.811 72.5372 123.715 72.8002C123.618 73.0633 123.468 73.3036 123.274 73.5061C123.081 73.7086 122.847 73.869 122.588 73.9771C122.329 74.0853 122.05 74.1389 121.77 74.1346C121.407 74.1346 121.059 73.9908 120.802 73.7347C120.546 73.4787 120.401 73.1314 120.401 72.7693C120.387 72.4943 120.428 72.2191 120.523 71.9605C120.618 71.7018 120.764 71.4651 120.954 71.2647C121.143 71.0643 121.371 70.9043 121.624 70.7945C121.877 70.6847 122.15 70.6273 122.426 70.6259C122.608 70.6204 122.789 70.6512 122.959 70.7165C123.129 70.7818 123.284 70.8803 123.416 71.0062C123.547 71.1321 123.652 71.2828 123.724 71.4496C123.796 71.6164 123.834 71.7959 123.836 71.9775ZM121.4 72.7011C121.4 73.097 121.592 73.3701 121.934 73.3701C122.495 73.3701 122.796 72.5646 122.796 72.0048C122.796 71.6908 122.659 71.3495 122.262 71.3495C121.865 71.3495 121.386 72.1823 121.4 72.7011Z" fill="white"/>
<path d="M124.836 74.0528L125.26 71.7592C125.26 71.3359 125.383 70.9536 125.424 70.6533H126.286V71.2131C126.411 71.0188 126.583 70.8594 126.787 70.7495C126.99 70.6397 127.218 70.5831 127.449 70.585C127.641 70.5657 127.833 70.622 127.984 70.7419C128.135 70.8618 128.232 71.0358 128.256 71.2267C128.38 71.0299 128.551 70.8678 128.755 70.7555C128.958 70.6432 129.187 70.5846 129.419 70.585C129.537 70.5778 129.655 70.5967 129.764 70.6405C129.873 70.6842 129.971 70.7517 130.051 70.8379C130.131 70.9242 130.191 71.0271 130.226 71.1392C130.261 71.2513 130.27 71.3698 130.254 71.4861C130.266 71.6816 130.266 71.8777 130.254 72.0732L129.885 74.0528H128.913L129.255 72.1961C129.268 72.0598 129.268 71.9227 129.255 71.7865C129.255 71.5407 129.146 71.3769 128.913 71.3769C128.681 71.3769 128.243 71.8274 128.12 72.5101L127.832 74.0528H126.861L127.203 72.1824C127.214 72.0552 127.214 71.9273 127.203 71.8001C127.203 71.568 127.121 71.3769 126.888 71.3769C126.656 71.3769 126.19 71.8547 126.067 72.5237L125.78 74.0528H124.836Z" fill="white"/>
<path d="M134.151 73.8616C133.757 74.0428 133.326 74.1315 132.892 74.121C132.704 74.1361 132.514 74.112 132.335 74.0502C132.156 73.9884 131.992 73.8902 131.853 73.7619C131.715 73.6336 131.604 73.4779 131.528 73.3047C131.453 73.1316 131.414 72.9446 131.415 72.7558C131.396 72.4819 131.433 72.2071 131.524 71.948C131.615 71.6888 131.757 71.4507 131.942 71.2479C132.128 71.0451 132.352 70.8818 132.603 70.7678C132.853 70.6539 133.124 70.5917 133.399 70.585C133.544 70.5657 133.692 70.5773 133.832 70.619C133.973 70.6607 134.103 70.7316 134.214 70.827C134.325 70.9224 134.415 71.0402 134.477 71.1726C134.539 71.305 134.573 71.449 134.575 71.5953C134.575 72.469 133.741 72.7831 132.373 72.7421C132.377 72.8637 132.415 72.9817 132.482 73.0834C132.561 73.1785 132.662 73.2531 132.777 73.3006C132.891 73.3482 133.015 73.3674 133.139 73.3565C133.466 73.3584 133.79 73.2835 134.083 73.138L134.151 73.8616ZM133.276 71.3086C133.079 71.3155 132.892 71.39 132.745 71.5195C132.597 71.6489 132.5 71.8253 132.468 72.0185C133.248 72.0185 133.645 71.9093 133.645 71.6089C133.645 71.3086 133.494 71.3086 133.276 71.3086Z" fill="white"/>
<path d="M135.453 74.0528L135.891 71.7591C135.973 71.3359 136.028 70.9536 136.069 70.6533H136.958V71.2267C137.084 71.0259 137.26 70.8612 137.468 70.7487C137.677 70.6363 137.911 70.5798 138.148 70.585C138.269 70.5761 138.391 70.594 138.504 70.6374C138.617 70.6808 138.719 70.7487 138.803 70.8361C138.886 70.9236 138.95 71.0284 138.988 71.1431C139.026 71.2579 139.039 71.3797 139.024 71.4997C139.037 71.6952 139.037 71.8913 139.024 72.0868L138.641 74.0528H137.642L137.998 72.1687C138.012 72.0417 138.012 71.9135 137.998 71.7864C137.998 71.5543 137.916 71.3905 137.656 71.3905C137.396 71.3905 136.944 71.8001 136.808 72.551L136.52 74.0528H135.453Z" fill="white"/>
<path d="M142.033 69.7112L141.855 70.6532H142.58L142.429 71.4178H141.704L141.485 72.5646C141.473 72.71 141.473 72.8561 141.485 73.0015C141.485 73.1653 141.485 73.2882 141.759 73.2882H142.046L141.923 74.0664C141.733 74.1272 141.534 74.1549 141.335 74.1483C140.733 74.1483 140.445 73.8343 140.445 73.4111C140.429 73.2021 140.429 72.9921 140.445 72.7831L140.719 71.4178H140.281L140.418 70.6532H140.924L141.061 69.9433L142.033 69.7112Z" fill="white"/>
<path d="M146.779 71.9776C146.798 72.2542 146.759 72.5317 146.666 72.7929C146.573 73.054 146.426 73.2932 146.236 73.4955C146.047 73.6978 145.817 73.859 145.562 73.969C145.307 74.079 145.032 74.1354 144.754 74.1347C144.568 74.1459 144.381 74.1189 144.205 74.0553C144.03 73.9917 143.869 73.8929 143.733 73.765C143.597 73.6371 143.489 73.4828 143.415 73.3116C143.341 73.1404 143.303 72.9559 143.304 72.7695C143.289 72.4933 143.331 72.217 143.426 71.9574C143.522 71.6978 143.67 71.4605 143.861 71.2599C144.052 71.0593 144.281 70.8996 144.536 70.7906C144.791 70.6816 145.065 70.6256 145.342 70.626C145.527 70.6168 145.711 70.6448 145.884 70.7084C146.057 70.7721 146.215 70.8699 146.349 70.9962C146.484 71.1224 146.591 71.2745 146.665 71.4431C146.738 71.6118 146.777 71.7936 146.779 71.9776ZM144.344 72.7012C144.344 73.0971 144.535 73.3702 144.891 73.3702C145.247 73.3702 145.739 72.5647 145.739 72.0049C145.739 71.6909 145.616 71.3496 145.206 71.3496C144.795 71.3496 144.344 72.1824 144.344 72.7012Z" fill="white"/>
<path d="M147.903 73.1654C148.179 73.3039 148.482 73.383 148.792 73.3975C149.079 73.3975 149.23 73.2609 149.23 73.0834C149.23 72.906 149.12 72.8104 148.806 72.6466C148.611 72.5819 148.438 72.4626 148.31 72.3027C148.181 72.1429 148.102 71.9494 148.08 71.7455C148.08 71.0492 148.696 70.585 149.572 70.585C149.872 70.5697 150.173 70.6258 150.447 70.7488L150.215 71.4588C150 71.3602 149.767 71.309 149.531 71.3086C149.271 71.3086 149.093 71.4315 149.093 71.609C149.093 71.7864 149.23 71.8684 149.503 72.0049C149.707 72.0694 149.888 72.1913 150.024 72.3561C150.16 72.5208 150.245 72.7212 150.27 72.9333C150.27 73.7115 149.599 74.1211 148.71 74.1211C148.341 74.1354 147.976 74.0455 147.656 73.8617L147.903 73.1654Z" fill="white"/>
</svg>
